# xmcd
#
# Track frame offsets: 
#        150
#        19389
#        37325
#        62565
#        77942
#        100721
#        120293
#        151557
#        182143
#        206497
#        241597
#
# Disc length: 3542 seconds
#
# Revision: 0
# Processed by: cddbd v1.5.2PL0 Copyright (c) Steve Scherf et al.
# Submitted via: ExactAudioCopy v0.95b4
#
DISCID=820dd40b
DTITLE=Erykah Badu - New Amerykah, Pt. 1: 4th World War
DYEAR=2008
DGENRE=R&B
TTITLE0=Amerykahn Promise
TTITLE1=The Healer
TTITLE2=Me
TTITLE3=My People
TTITLE4=Soldier
TTITLE5=The Cell
TTITLE6=Twinkle
TTITLE7=Master Teacher
TTITLE8=That Hump
TTITLE9=Telephone
TTITLE10=Honey
EXTD=
EXTT0=
EXTT1=
EXTT2=
EXTT3=
EXTT4=
EXTT5=
EXTT6=
EXTT7=
EXTT8=
EXTT9=
EXTT10=
PLAYORDER=
